<svg t="1760340064915" class="icon" viewBox="0 0 1024 1024" version="1.1" xmlns="http://www.w3.org/2000/svg" p-id="32733" id="mx_n_1760340064916" width="200" height="200"><path d="M1020.5184 513.6384c0 281.8048-228.352 510.3616-510.3616 510.3616S0 795.648 0 513.6384 228.352 3.4816 510.3616 3.4816s510.1568 228.352 510.1568 510.1568z" fill="#fff2e8" p-id="32734" data-spm-anchor-id="a313x.search_index.0.i113.3aa63a81WGbais" class=""></path><path d="M770.2528 786.8416H355.1232c-43.4176 0-78.6432-35.2256-78.6432-78.6432v-317.44h49.7664v317.44c1.2288 14.9504 13.9264 27.4432 29.0816 28.4672h415.1296v50.176zM326.0416 256.2048H276.48v111.616h49.7664v-111.616z m420.6592 61.8496H389.9392v49.7664h356.7616v-49.7664z m15.36 180.224H374.5792v49.7664h387.4816v-49.7664zM678.7072 720.896V255.1808h-49.7664V720.896h49.7664zM460.3904 255.1808v294.5024c0 43.6224-21.0944 84.992-56.32 110.592l-29.4912 21.2992 28.8768 39.7312 29.4912-21.2992c47.9232-34.816 76.5952-91.136 76.5952-150.3232V255.1808h-49.152z" fill="#f2cd88" p-id="32735" data-spm-anchor-id="a313x.search_index.0.i112.3aa63a81WGbais" class="selected"></path></svg>